PathFileType	4	(X/Y/Z)	OpenSim_Sub08_EMGStiffKnee_Magnet.trc
DataRate	CameraRate	NumFrames	NumMarkers	Units	OrigDataRate	OrigDataStartFrame	OrigNumFrames
100	100	20	8	m	100	1	6301
Frame#	Time	torso_imu_offset_imu	pelvis_imu_offset_imu	tibia_r_imu_offset_imu	femur_r_imu_offset_imu	tibia_l_imu_offset_imu	femur_l_imu_offset_imu	toes_r_imu_offset_imu	toes_l_imu_offset_imu
				X1	Y1	Z1	X2	Y2	Z2	X3	Y3	Z3	X4	Y4	Z4	X5	Y5	Z5	X6	Y6	Z6	X7	Y7	Z7	X8		Y8	Z8	

1	0	-0.94326861	-0.14612498	0.06819841	-0.64255716	0.18243950	-0.67175979	-0.66345372	-0.49866705	-0.07291552	-0.75801269	-0.40462314	-0.07520932	-0.69221982	0.40097554	0.19551403	-0.71867285	0.33082453	0.28273783	-0.59110666	-0.27042126	-0.45586318	-0.71955329	-0.18017041	-0.36128496
2	0.01000000	-0.94543620	-0.14351309	0.07039583	-0.65235442	0.17467636	-0.66747497	-0.66304754	-0.49293757	-0.07490837	-0.75661987	-0.39562822	-0.08633748	-0.69637227	0.39639129	0.19609747	-0.72279635	0.32664055	0.28340749	-0.59480713	-0.27077908	-0.45511927	-0.72178915	-0.17651244	-0.36371822
3	0.02000000	-0.94265703	-0.14162250	0.07049085	-0.64308836	0.17975178	-0.67002081	-0.66124479	-0.49724156	-0.07213367	-0.76034899	-0.39375549	-0.07923787	-0.68920765	0.39703871	0.19586638	-0.72045857	0.32869046	0.28284581	-0.58803240	-0.27097638	-0.45154843	-0.71981557	-0.18043170	-0.36808713
4	0.03000000	-0.93708874	-0.13957964	0.07242952	-0.64431985	0.18122272	-0.66727352	-0.66588608	-0.49749523	-0.07047945	-0.75676355	-0.38807175	-0.08229800	-0.68996697	0.39874086	0.19834094	-0.72068926	0.32430498	0.27859205	-0.58651353	-0.27241683	-0.45539356	-0.72377454	-0.17378954	-0.36807142
5	0.04000000	-0.94119597	-0.14214858	0.07033223	-0.64825928	0.17921632	-0.66559840	-0.66646907	-0.50102554	-0.07201362	-0.76017736	-0.39464716	-0.08165260	-0.69494962	0.39378947	0.20039595	-0.72263193	0.32699066	0.27884322	-0.58899090	-0.26865550	-0.45337021	-0.71735907	-0.17656665	-0.36713815
6	0.05000000	-0.93916082	-0.14584465	0.07295862	-0.64567798	0.18162525	-0.66996951	-0.65953983	-0.49264310	-0.06812948	-0.75456912	-0.39151214	-0.08199393	-0.70032796	0.39229212	0.19833595	-0.72052603	0.32900837	0.27888908	-0.59057274	-0.27282554	-0.45535495	-0.72455864	-0.17595931	-0.35890699
7	0.06000000	-0.94338539	-0.14173633	0.07225082	-0.64368881	0.18105489	-0.66776050	-0.66733853	-0.49506680	-0.07302354	-0.76078992	-0.38793556	-0.08433666	-0.69136541	0.39734864	0.19827572	-0.72383184	0.32851187	0.27845227	-0.58652729	-0.27033159	-0.45312466	-0.72122667	-0.17430155	-0.36621914
8	0.07000000	-0.94133492	-0.14390301	0.07035922	-0.64396461	0.17961994	-0.67278020	-0.65891687	-0.49327881	-0.07487161	-0.75658893	-0.39032661	-0.08425321	-0.69231163	0.40113852	0.19786482	-0.73128395	0.32425313	0.27724570	-0.58895899	-0.27341948	-0.45378831	-0.71752409	-0.17870540	-0.36557099
9	0.08000000	-0.94535560	-0.14142391	0.07270535	-0.64616438	0.18568697	-0.67711166	-0.66330991	-0.49936555	-0.07217270	-0.76061670	-0.39257539	-0.08402205	-0.69204421	0.39871444	0.19551325	-0.72179711	0.32738106	0.28550067	-0.59054483	-0.27611788	-0.45744446	-0.72160095	-0.17847489	-0.36583489
10	0.09000000	-0.94057399	-0.13706235	0.07195082	-0.64575007	0.18076956	-0.67397892	-0.66091843	-0.49472676	-0.07036035	-0.75816745	-0.39599318	-0.08178987	-0.69234772	0.39916330	0.19649637	-0.71835959	0.33333302	0.28091141	-0.59122212	-0.26400472	-0.45301523	-0.71711404	-0.17819266	-0.36542501
11	0.10000000	-0.93683680	-0.13532125	0.07035068	-0.64389594	0.17680164	-0.66963596	-0.66123812	-0.49545745	-0.07278138	-0.75844320	-0.38976175	-0.08164008	-0.69431410	0.40077780	0.20205264	-0.71883028	0.33107789	0.28300614	-0.59481720	-0.26724919	-0.45373689	-0.72010202	-0.17371993	-0.36356474
12	0.11000000	-0.94010012	-0.13769809	0.07449115	-0.64597721	0.17724131	-0.67234661	-0.66092513	-0.49673489	-0.07488966	-0.75656023	-0.39023091	-0.07750550	-0.69156644	0.39606237	0.19317616	-0.72319052	0.33320026	0.27884956	-0.59079867	-0.27069504	-0.45516466	-0.72197702	-0.17456799	-0.36794064
13	0.12000000	-0.94483450	-0.13991034	0.07234360	-0.64365201	0.17916054	-0.67190968	-0.65926969	-0.49309219	-0.07461976	-0.75888715	-0.39013856	-0.08515962	-0.68965095	0.39546413	0.19651726	-0.72260198	0.32819050	0.28348806	-0.59284875	-0.26854165	-0.45189597	-0.72160850	-0.17827229	-0.36589766
14	0.13000000	-0.93502021	-0.14153990	0.07456907	-0.64381038	0.17679132	-0.66948701	-0.66369141	-0.49694874	-0.06999883	-0.76032882	-0.39263458	-0.08807496	-0.68994010	0.40545142	0.19751290	-0.72056234	0.32455286	0.28321517	-0.58847763	-0.27066380	-0.45979021	-0.72217307	-0.17410874	-0.37024138
15	0.14000000	-0.94606260	-0.13952268	0.06968205	-0.64390049	0.17729001	-0.66999465	-0.66746404	-0.49300263	-0.07064096	-0.75844665	-0.39594448	-0.08200420	-0.69266073	0.39615884	0.19612034	-0.72292160	0.32941672	0.28578909	-0.59110030	-0.27075145	-0.45276168	-0.72398051	-0.17876526	-0.36771797
16	0.15000000	-0.94040099	-0.13968183	0.07049697	-0.64337728	0.17897411	-0.67508921	-0.66228984	-0.50001842	-0.07222362	-0.76052945	-0.38989930	-0.08901128	-0.70135613	0.39929042	0.20039011	-0.72045392	0.33063139	0.28734143	-0.59043734	-0.27066451	-0.45141117	-0.72179005	-0.17842826	-0.36800834
17	0.16000000	-0.93959838	-0.13963800	0.07457462	-0.63955224	0.17489668	-0.67636533	-0.65959319	-0.50081308	-0.06776406	-0.75627501	-0.39232298	-0.08383208	-0.69797189	0.40058281	0.19541312	-0.72076270	0.32403119	0.28299430	-0.58915881	-0.27110666	-0.45151531	-0.72395602	-0.17832150	-0.36776648
18	0.17000000	-0.94534468	-0.13965416	0.07478299	-0.64387606	0.17735429	-0.66899142	-0.66731690	-0.49257211	-0.07057182	-0.75857740	-0.39192308	-0.08441551	-0.69166200	0.39458707	0.19647271	-0.72526615	0.32483181	0.28310112	-0.59436483	-0.27492985	-0.45361911	-0.71949715	-0.17617014	-0.36552814
19	0.18000000	-0.93880954	-0.13963335	0.07890445	-0.64161813	0.17919204	-0.66798646	-0.65877213	-0.49556738	-0.07296450	-0.75649215	-0.38992893	-0.08387767	-0.69205441	0.39889264	0.20029740	-0.72733218	0.32925701	0.28090160	-0.58627472	-0.27264299	-0.45539210	-0.71961816	-0.17621955	-0.36606496
20	0.19000000	-0.94384796	-0.13970044	0.07662256	-0.64378046	0.17947212	-0.67494866	-0.66391682	-0.49684821	-0.07686113	-0.75902551	-0.38768799	-0.08253350	-0.68953569	0.39436004	0.19788630	-0.72447142	0.33099567	0.28093008	-0.59097701	-0.27232372	-0.45532102	-0.71714923	-0.17657385	-0.37038524
